<svg height="39" viewBox="0 0 50 50" fill="none" xmlns="http://www.w3.org/2000/svg">
  <title>Quoting Fast Icon</title>
  <g>
    <!-- Circle outline -->  
    <circle cx="25" cy="25" r="20" fill="transparent" stroke="currentColor" stroke-width="2" />
    
    <!-- Gauge indicator needle -->
    <path d="M25,25 L25,10 L28,10 L25,25 Z" fill="currentColor" />
    
    <!-- Speedometer colored segments -->
    <path d="M25,10 Q25,10 26,10 L27,10 Q28,10 28,12 L27,17 Q26,19 25,19 Q24,19 23,17 L22,12 Q22,10 23,10 L24,10 Q25,10 25,10 Z" fill="#0099FF" transform="rotate(45, 25, 25)" />
    <path d="M25,10 Q25,10 26,10 L27,10 Q28,10 28,12 L27,17 Q26,19 25,19 Q24,19 23,17 L22,12 Q22,10 23,10 L24,10 Q25,10 25,10 Z" fill="#0088FF" transform="rotate(90, 25, 25)" />
    <path d="M25,10 Q25,10 26,10 L27,10 Q28,10 28,12 L27,17 Q26,19 25,19 Q24,19 23,17 L22,12 Q22,10 23,10 L24,10 Q25,10 25,10 Z" fill="#0077FF" transform="rotate(135, 25, 25)" />
    
    <!-- Center circle -->
    <circle cx="25" cy="25" r="2" fill="currentColor" />
  </g>
</svg>
